<svg width="12" height="9" viewBox="0 0 12 9" fill="none" xmlns="http://www.w3.org/2000/svg">
<path d="M0.756567 5.74326L2.83957 7.82626C3.12086 8.10746 3.50232 8.26543 3.90007 8.26543C4.29781 8.26543 4.67928 8.10746 4.96057 7.82626L11.3936 1.39325C11.4846 1.29895 11.535 1.17265 11.5339 1.04155C11.5328 0.910455 11.4802 0.785049 11.3875 0.692345C11.2948 0.599641 11.1694 0.547057 11.0383 0.545917C10.9072 0.544778 10.7809 0.595175 10.6866 0.686254L4.25357 7.11926C4.1598 7.21299 4.03265 7.26565 3.90007 7.26565C3.76748 7.26565 3.64033 7.21299 3.54657 7.11926L1.46357 5.03625C1.36927 4.94518 1.24296 4.89478 1.11187 4.89592C0.980768 4.89706 0.855362 4.94964 0.762658 5.04235C0.669954 5.13505 0.617369 5.26046 0.61623 5.39155C0.615091 5.52265 0.665488 5.64895 0.756567 5.74326Z" fill="#7300E5"/>
</svg>
