<svg width="158" height="24" viewBox="0 0 158 24" fill="none" xmlns="http://www.w3.org/2000/svg">
<path d="M27.656 18.77C26.696 18.77 25.829 18.602 25.055 18.266C24.287 17.924 23.654 17.438 23.156 16.808C22.664 16.172 22.352 15.416 22.22 14.54L24.776 14.162C24.956 14.906 25.328 15.479 25.892 15.881C26.456 16.283 27.098 16.484 27.818 16.484C28.22 16.484 28.61 16.421 28.988 16.295C29.366 16.169 29.675 15.983 29.915 15.737C30.161 15.491 30.284 15.188 30.284 14.828C30.284 14.696 30.263 14.57 30.221 14.45C30.185 14.324 30.122 14.207 30.032 14.099C29.942 13.991 29.813 13.889 29.645 13.793C29.483 13.697 29.276 13.61 29.024 13.532L25.658 12.542C25.406 12.47 25.112 12.368 24.776 12.236C24.446 12.104 24.125 11.915 23.813 11.669C23.501 11.423 23.24 11.099 23.03 10.697C22.826 10.289 22.724 9.776 22.724 9.158C22.724 8.288 22.943 7.565 23.381 6.989C23.819 6.413 24.404 5.984 25.136 5.702C25.868 5.42 26.678 5.282 27.566 5.288C28.46 5.3 29.258 5.453 29.96 5.747C30.662 6.041 31.25 6.47 31.724 7.034C32.198 7.592 32.54 8.276 32.75 9.086L30.104 9.536C30.008 9.116 29.831 8.762 29.573 8.474C29.315 8.186 29.006 7.967 28.646 7.817C28.292 7.667 27.92 7.586 27.53 7.574C27.146 7.562 26.783 7.616 26.441 7.736C26.105 7.85 25.829 8.018 25.613 8.24C25.403 8.462 25.298 8.726 25.298 9.032C25.298 9.314 25.385 9.545 25.559 9.725C25.733 9.899 25.952 10.04 26.216 10.148C26.48 10.256 26.75 10.346 27.026 10.418L29.276 11.03C29.612 11.12 29.984 11.24 30.392 11.39C30.8 11.534 31.19 11.738 31.562 12.002C31.94 12.26 32.249 12.602 32.489 13.028C32.735 13.454 32.858 13.994 32.858 14.648C32.858 15.344 32.711 15.953 32.417 16.475C32.129 16.991 31.739 17.42 31.247 17.762C30.755 18.098 30.197 18.35 29.573 18.518C28.955 18.686 28.316 18.77 27.656 18.77ZM35.0162 18.5V5.27H37.4642V18.5H35.0162ZM40.3423 7.43V5.27H42.7903V7.43H40.3423ZM40.3423 18.5V8.78H42.7903V18.5H40.3423ZM57.1885 18.5V12.758C57.1885 12.116 57.0355 11.618 56.7295 11.264C56.4295 10.904 56.0125 10.724 55.4785 10.724C55.1365 10.724 54.8395 10.805 54.5875 10.967C54.3355 11.123 54.1375 11.345 53.9935 11.633C53.8555 11.915 53.7865 12.242 53.7865 12.614L52.7605 11.93C52.7605 11.264 52.9165 10.676 53.2285 10.166C53.5465 9.656 53.9695 9.26 54.4975 8.978C55.0315 8.69 55.6225 8.546 56.2705 8.546C57.3805 8.546 58.2175 8.876 58.7815 9.536C59.3515 10.19 59.6365 11.048 59.6365 12.11V18.5H57.1885ZM45.4705 18.5V8.78H47.6305V12.002H47.9365V18.5H45.4705ZM51.3385 18.5V12.758C51.3385 12.116 51.1855 11.618 50.8795 11.264C50.5795 10.904 50.1625 10.724 49.6285 10.724C49.1185 10.724 48.7075 10.901 48.3955 11.255C48.0895 11.603 47.9365 12.056 47.9365 12.614L46.9105 11.894C46.9105 11.258 47.0695 10.688 47.3875 10.184C47.7055 9.68 48.1315 9.281 48.6655 8.987C49.2055 8.693 49.8085 8.546 50.4745 8.546C51.2365 8.546 51.8605 8.708 52.3465 9.032C52.8385 9.356 53.2015 9.788 53.4355 10.328C53.6695 10.868 53.7865 11.462 53.7865 12.11V18.5H51.3385ZM98.1526 18.5V5.54H103.625C103.751 5.54 103.919 5.546 104.129 5.558C104.345 5.564 104.537 5.582 104.705 5.612C105.479 5.732 106.112 5.987 106.604 6.377C107.102 6.767 107.468 7.259 107.702 7.853C107.936 8.441 108.053 9.098 108.053 9.824C108.053 10.91 107.783 11.84 107.243 12.614C106.703 13.382 105.857 13.856 104.705 14.036L103.625 14.108H100.601V18.5H98.1526ZM105.461 18.5L102.905 13.226L105.425 12.74L108.233 18.5H105.461ZM100.601 11.822H103.517C103.643 11.822 103.781 11.816 103.931 11.804C104.081 11.792 104.219 11.768 104.345 11.732C104.675 11.642 104.93 11.492 105.11 11.282C105.29 11.066 105.413 10.829 105.479 10.571C105.551 10.307 105.587 10.058 105.587 9.824C105.587 9.59 105.551 9.344 105.479 9.086C105.413 8.822 105.29 8.585 105.11 8.375C104.93 8.159 104.675 8.006 104.345 7.916C104.219 7.88 104.081 7.856 103.931 7.844C103.781 7.832 103.643 7.826 103.517 7.826H100.601V11.822ZM110.391 7.43V5.27H112.839V7.43H110.391ZM110.391 18.5V8.78H112.839V18.5H110.391ZM119.821 18.77C118.813 18.77 117.949 18.545 117.229 18.095C116.509 17.645 115.957 17.033 115.573 16.259C115.189 15.485 114.997 14.612 114.997 13.64C114.997 12.656 115.195 11.777 115.591 11.003C115.993 10.229 116.557 9.62 117.283 9.176C118.009 8.732 118.867 8.51 119.857 8.51C121.003 8.51 121.963 8.801 122.737 9.383C123.517 9.959 124.015 10.748 124.231 11.75L121.783 12.398C121.639 11.894 121.387 11.501 121.027 11.219C120.673 10.937 120.271 10.796 119.821 10.796C119.305 10.796 118.882 10.922 118.552 11.174C118.222 11.42 117.979 11.759 117.823 12.191C117.667 12.617 117.589 13.1 117.589 13.64C117.589 14.486 117.775 15.173 118.147 15.701C118.525 16.223 119.083 16.484 119.821 16.484C120.373 16.484 120.793 16.358 121.081 16.106C121.369 15.854 121.585 15.494 121.729 15.026L124.231 15.548C123.955 16.58 123.433 17.375 122.665 17.933C121.897 18.491 120.949 18.77 119.821 18.77ZM132.655 18.5V13.91C132.655 13.688 132.643 13.406 132.619 13.064C132.595 12.716 132.52 12.368 132.394 12.02C132.268 11.672 132.061 11.381 131.773 11.147C131.491 10.913 131.089 10.796 130.567 10.796C130.357 10.796 130.132 10.829 129.892 10.895C129.652 10.961 129.427 11.09 129.217 11.282C129.007 11.468 128.833 11.744 128.695 12.11C128.563 12.476 128.497 12.962 128.497 13.568L127.093 12.902C127.093 12.134 127.249 11.414 127.561 10.742C127.873 10.07 128.341 9.527 128.965 9.113C129.595 8.699 130.387 8.492 131.341 8.492C132.103 8.492 132.724 8.621 133.204 8.879C133.684 9.137 134.056 9.464 134.32 9.86C134.59 10.256 134.782 10.67 134.896 11.102C135.01 11.528 135.079 11.918 135.103 12.272C135.127 12.626 135.139 12.884 135.139 13.046V18.5H132.655ZM126.013 18.5V5.54H128.191V12.2H128.497V18.5H126.013Z" fill="#7300E5"/>
<path d="M65.3608 20.3V18.14H67.8088V20.3H65.3608ZM65.3608 5.918V3.758H67.8088V5.918H65.3608ZM66.6028 18.77C65.6728 18.77 64.8418 18.599 64.1098 18.257C63.3778 17.909 62.7808 17.42 62.3188 16.79C61.8568 16.154 61.5628 15.404 61.4368 14.54L63.8668 14.162C64.0288 14.87 64.3678 15.434 64.8838 15.854C65.4058 16.274 66.0268 16.484 66.7468 16.484C67.4248 16.484 67.9858 16.325 68.4298 16.007C68.8798 15.689 69.1048 15.296 69.1048 14.828C69.1048 14.51 69.0058 14.249 68.8078 14.045C68.6158 13.835 68.3128 13.664 67.8988 13.532L64.6948 12.542C62.8468 11.972 61.9228 10.844 61.9228 9.158C61.9228 8.366 62.1088 7.679 62.4808 7.097C62.8588 6.515 63.3898 6.068 64.0738 5.756C64.7638 5.438 65.5768 5.282 66.5128 5.288C67.3708 5.3 68.1328 5.456 68.7988 5.756C69.4648 6.05 70.0198 6.479 70.4638 7.043C70.9138 7.601 71.2408 8.282 71.4448 9.086L68.9248 9.536C68.8408 9.152 68.6848 8.816 68.4568 8.528C68.2288 8.234 67.9438 8.006 67.6018 7.844C67.2658 7.676 66.8908 7.586 66.4768 7.574C66.0808 7.562 65.7208 7.619 65.3968 7.745C65.0788 7.871 64.8238 8.048 64.6318 8.276C64.4458 8.498 64.3528 8.75 64.3528 9.032C64.3528 9.344 64.4848 9.614 64.7488 9.842C65.0128 10.064 65.4328 10.256 66.0088 10.418L68.2948 11.066C69.4408 11.396 70.2658 11.843 70.7698 12.407C71.2798 12.971 71.5348 13.718 71.5348 14.648C71.5348 15.464 71.3278 16.181 70.9138 16.799C70.4998 17.417 69.9208 17.9 69.1768 18.248C68.4388 18.596 67.5808 18.77 66.6028 18.77ZM73.508 18.5V5.54H75.992L81.626 14.18V5.54H84.11V18.5H81.626L75.992 9.86V18.5H73.508ZM90.0053 20.3V18.14H92.4533V20.3H90.0053ZM90.0053 5.918V3.758H92.4533V5.918H90.0053ZM91.2473 18.77C90.3173 18.77 89.4863 18.599 88.7543 18.257C88.0223 17.909 87.4253 17.42 86.9633 16.79C86.5013 16.154 86.2073 15.404 86.0813 14.54L88.5113 14.162C88.6733 14.87 89.0123 15.434 89.5283 15.854C90.0503 16.274 90.6713 16.484 91.3913 16.484C92.0693 16.484 92.6303 16.325 93.0743 16.007C93.5243 15.689 93.7493 15.296 93.7493 14.828C93.7493 14.51 93.6503 14.249 93.4523 14.045C93.2603 13.835 92.9573 13.664 92.5433 13.532L89.3393 12.542C87.4913 11.972 86.5673 10.844 86.5673 9.158C86.5673 8.366 86.7533 7.679 87.1253 7.097C87.5033 6.515 88.0343 6.068 88.7183 5.756C89.4083 5.438 90.2213 5.282 91.1573 5.288C92.0153 5.3 92.7773 5.456 93.4433 5.756C94.1093 6.05 94.6643 6.479 95.1083 7.043C95.5583 7.601 95.8853 8.282 96.0893 9.086L93.5693 9.536C93.4853 9.152 93.3293 8.816 93.1013 8.528C92.8733 8.234 92.5883 8.006 92.2463 7.844C91.9103 7.676 91.5353 7.586 91.1213 7.574C90.7253 7.562 90.3653 7.619 90.0413 7.745C89.7233 7.871 89.4683 8.048 89.2763 8.276C89.0903 8.498 88.9973 8.75 88.9973 9.032C88.9973 9.344 89.1293 9.614 89.3933 9.842C89.6573 10.064 90.0773 10.256 90.6533 10.418L92.9393 11.066C94.0853 11.396 94.9103 11.843 95.4143 12.407C95.9243 12.971 96.1793 13.718 96.1793 14.648C96.1793 15.464 95.9723 16.181 95.5583 16.799C95.1443 17.417 94.5653 17.9 93.8213 18.248C93.0833 18.596 92.2253 18.77 91.2473 18.77Z" fill="#F77600"/>
</svg>
