<svg width="24" height="24" viewBox="0 0 24 24" fill="none" xmlns="http://www.w3.org/2000/svg">
<g clip-path="url(#clip0_396_8547)">
<path d="M10 16.9998H7.329C6.93472 17.0011 6.54411 16.924 6.17985 16.7731C5.81558 16.6222 5.4849 16.4005 5.207 16.1208L0.052 10.9658C0.023 11.3078 0 11.6508 0 11.9998C0.0043918 15.0071 1.13694 17.9033 3.17374 20.1158C5.21054 22.3283 8.00334 23.6961 11 23.9488V17.9998C11 17.7346 10.8946 17.4802 10.7071 17.2927C10.5196 17.1052 10.2652 16.9998 10 16.9998Z" fill="#7300E5"/>
<path d="M20.436 3.47803L18.646 5.26803C18.1763 5.73512 17.5414 5.99814 16.879 6.00003H15.5C15.3674 6.00003 15.2402 6.05271 15.1464 6.14647C15.0527 6.24024 15 6.36742 15 6.50003V7.50003C15 8.16307 14.7366 8.79895 14.2678 9.2678C13.7989 9.73664 13.163 10 12.5 10C12.3674 10 12.2402 10.0527 12.1464 10.1465C12.0527 10.2402 12 10.3674 12 10.5V11C12 11.2652 12.1054 11.5196 12.2929 11.7071C12.4804 11.8947 12.7348 12 13 12H16C16.7956 12 17.5587 12.3161 18.1213 12.8787C18.6839 13.4413 19 14.2044 19 15V15.962C19 16.0944 19.0525 16.2213 19.146 16.315L21.771 18.941C23.4258 16.6267 24.2005 13.7978 23.9558 10.9633C23.7111 8.12872 22.463 5.4745 20.436 3.47803Z" fill="#7300E5"/>
<path d="M16.9999 15.963V15.001C16.9999 14.7358 16.8946 14.4814 16.707 14.2939C16.5195 14.1064 16.2651 14.001 15.9999 14.001H12.9999C12.2043 14.001 11.4412 13.6849 10.8786 13.1223C10.316 12.5597 9.99991 11.7966 9.99991 11.001V10.501C9.99991 9.83795 10.2633 9.20207 10.7321 8.73323C11.201 8.26439 11.8369 8.001 12.4999 8.001C12.6325 8.001 12.7597 7.94832 12.8535 7.85455C12.9472 7.76078 12.9999 7.6336 12.9999 7.501V6.501C12.9999 5.83795 13.2633 5.20207 13.7321 4.73323C14.201 4.26439 14.8369 4.001 15.4999 4.001H16.8789C17.0111 4.00021 17.1378 3.94782 17.2319 3.855L18.8929 2.194C17.3378 1.09567 15.5433 0.38397 13.6581 0.117954C11.773 -0.148062 9.85157 0.0392687 8.05329 0.664406C6.25502 1.28954 4.63174 2.33446 3.3181 3.71248C2.00447 5.0905 1.03835 6.76189 0.499908 8.588L6.61991 14.708C6.71298 14.8011 6.82353 14.8749 6.94519 14.9252C7.06686 14.9755 7.19726 15.0012 7.32891 15.001H9.99991C10.7956 15.001 11.5586 15.3171 12.1212 15.8797C12.6838 16.4423 12.9999 17.2053 12.9999 18.001V23.95C15.8266 23.7174 18.4787 22.4879 20.4829 20.481L17.7319 17.73C17.2648 17.2603 17.0018 16.6254 16.9999 15.963Z" fill="#7300E5"/>
</g>
<defs>
<clipPath id="clip0_396_8547">
<rect width="24" height="24" fill="white"/>
</clipPath>
</defs>
</svg>
